<svg width="401" height="376" viewBox="0 0 401 376" fill="none" xmlns="http://www.w3.org/2000/svg">
<path fill-rule="evenodd" clip-rule="evenodd" d="M193.184 23.1894C194.945 27.8495 196.705 32.5104 198.466 37.1707C199.595 40.1571 200.722 43.143 201.85 46.1294C202.251 47.1883 202.473 48.2744 203.247 49.0095C205.071 50.7402 208.345 51.8417 210.537 53.0593C212.006 53.8752 213.475 54.6911 214.943 55.5069C215.7 55.928 217.379 56.4565 217.91 57.1552C218.494 57.925 218.218 59.3388 218.218 60.4033V69.5942V86.912C210.632 85.9636 203.046 85.0157 195.46 84.0672C205.567 95.7291 215.673 107.39 225.78 119.052C228.271 121.926 231.295 124.692 233.151 128.036C237.101 135.154 240.961 142.322 244.866 149.465C248.5 156.113 252.135 162.762 255.769 169.41L223.072 168.019C214.606 167.658 205.91 168.2 197.753 165.801C191.03 163.823 184.306 161.846 177.582 159.868C176.688 159.605 173.902 159.307 173.269 158.588C172.675 157.913 172.688 155.366 172.52 154.504C169.346 138.192 165.306 120.216 156.043 106.175C149.403 96.1097 140.442 87.2972 132.235 78.52C129.032 75.0943 125.773 71.7096 122.683 68.1798C121.892 67.2757 120.749 66.2499 120.226 65.1518C119.888 64.4423 119.415 63.0905 119.625 62.4607C119.716 62.1876 121.828 61.2079 122.13 61.0133C124.27 59.6381 126.391 58.2339 128.517 56.8366C134.49 52.9097 140.457 48.9731 146.464 45.0985C151.147 42.0774 155.817 38.8742 160.757 36.278C165.877 33.5869 171.516 31.6928 176.884 29.5667C182.308 27.4177 187.743 25.2934 193.184 23.1894Z" fill="#241722"/>
<path fill-rule="evenodd" clip-rule="evenodd" d="M9.07489 272.154C11.6796 274.609 16.4229 277.903 20.1723 276.405C22.0555 275.653 23.664 274.001 25.3794 272.936C27.3946 271.684 29.2892 270.432 30.9978 268.764C34.4064 265.434 36.9872 260.57 41.0131 257.964C42.366 257.088 45.0071 256.9 45.9459 255.501C46.3664 254.873 46.4056 253.921 46.3282 253.196C46.1599 251.634 45.3161 251.726 46.7259 250.579H44.536C44.4939 249.733 45.3383 249.663 45.9675 249.772C45.6751 248.431 45.3769 243.184 47.8212 245.562C49.9399 247.623 48.88 251.043 50.3803 253.276C51.5291 254.985 54.5775 253.601 54.9889 251.72C55.1738 250.875 54.243 249.556 54.132 248.727C53.8885 246.89 54.7089 245.302 55.9003 243.911C58.5141 245.652 57.0325 249.257 58.5221 251.545C59.8699 253.615 62.8717 252.649 64.9239 252.285C67.3841 251.848 70.1657 252.29 72.5194 251.709C76.0737 250.832 74.7463 246.659 75.0979 243.966C75.4752 241.081 78.391 237.076 77.5148 234.166C76.5738 231.04 71.0726 230.365 68.4429 229.607C62.433 227.873 53.8606 227.54 49.3926 222.687C45.8389 226.65 42.9805 231.188 39.2533 235.003C35.2274 239.124 30.9272 242.929 27.0623 247.216C23.0399 251.678 18.8876 256.053 15.0113 260.644C13.3198 262.647 11.8349 264.805 10.0854 266.76C8.52985 268.497 6.89011 270.096 9.07489 272.154ZM187.705 195.076C185.858 194.094 185.623 194.71 185.624 196.733C186.155 195.761 186.683 195.501 187.705 195.076ZM203.363 234.394V230.829C201.583 230.783 202.677 233.832 203.363 234.394ZM203.798 239.704C203.798 238.125 203.841 236.622 203.386 235.086C203.147 236.76 202.69 238.208 203.798 239.704ZM196.143 348.159C194.508 348.312 191.988 347.185 190.613 348.468C189.2 349.787 189.314 353.624 188.979 355.405C188.426 358.348 187.936 361.301 187.47 364.258C187.165 366.197 186.787 368.166 188.979 368.908C192.219 370.004 196.848 368.44 200.224 368.298C206.895 368.017 213.562 367.627 220.238 367.491C226.709 367.361 233.195 367.464 239.636 368.137C242.545 368.441 245.391 368.978 248.271 369.464C249.789 369.721 253.856 370.793 255.227 369.513C257.807 367.104 253.518 361.48 251.674 359.892C248.25 356.944 243.382 354.819 239.089 353.538C236.795 352.854 232.971 350.933 231.164 353.082C229.777 354.73 229.832 356.93 227.845 358.179C223.242 361.072 225.935 352.772 228.812 351.75C226.88 347.229 223.199 353.612 221.672 355.146C221.128 355.691 219.361 357.49 218.594 356.586C218.019 355.909 219.167 353.483 219.379 352.823C219.703 351.82 220.52 350.295 220.285 349.208C219.86 347.241 217.1 346.705 215.447 346.541C212.884 346.287 210.37 347.1 207.836 347.371C203.95 347.787 200.034 347.794 196.143 348.159ZM221.878 162.845C226.938 163.247 232.029 162.474 237.077 163.107C241.853 163.707 246.353 165.46 250.856 167.071C244.162 151.373 235.503 137.082 224.948 123.695C219.692 117.028 214.039 110.406 208.36 104.096C205.717 101.16 202.984 98.3218 200.255 95.4686C197.821 92.923 196.077 88.6001 193.156 86.6993C190.663 85.0766 186.306 86.2339 183.543 86.3346C180.42 86.4484 176.62 86.7323 173.574 85.6928C171.367 84.9395 170.76 82.9294 173.523 82.8628C176.781 82.7837 179.986 83.1234 183.287 82.8179C191.84 82.0276 200.085 80.7287 208.708 81.4655C210.683 81.6339 213.283 82.4754 215.221 82.2227C216.615 82.0401 215.699 82.7411 216.668 81.6225C217.039 81.1946 217.486 80.1887 217.596 79.6204C218.213 76.428 216.46 71.8661 216.041 68.6521C215.653 65.6776 215.996 62.4084 215.27 59.5118C214.609 56.8759 212.594 56.5243 210.112 56.2426C203.323 55.4717 196.394 55.0615 189.574 54.4806C174.01 53.1549 157.951 51.1551 142.493 54.4311C136.911 55.6139 130.104 57.4431 125.118 60.3721C123.559 61.2875 121.985 62.3657 122.553 64.2626C123.141 66.2318 126.026 68.3118 127.454 69.609C138.013 79.1948 148.212 88.9722 155.629 101.272C165.089 116.956 170.517 133.896 173.702 151.868C174.387 155.735 175.023 157.759 179.001 158.872C183.272 160.067 187.394 160.844 191.822 161.207C201.832 162.029 211.873 162.046 221.878 162.845ZM218.488 58.9765C219.255 64.6859 220.293 70.3828 220.396 76.1372C220.434 78.3106 220.64 79.3996 222.951 79.8844C225.676 80.4556 228.446 80.8812 231.183 81.474C244.394 84.337 257.355 87.8531 270.279 91.8107C282.84 95.658 295.194 99.986 308.037 102.836C313.562 104.062 320.026 104.888 325.058 107.603C330.471 110.524 329.759 115.313 330.244 120.572C330.894 127.6 332.978 134.405 333.711 141.43C334.061 144.787 334.38 148.163 334.327 151.541C334.282 154.421 333.87 157.605 335.805 160.028C339.689 154.837 341.529 148.307 342.294 141.945C342.666 138.852 342.519 135.734 342.625 132.627C342.711 130.125 342.656 126.146 344.285 124.057C347.827 119.517 352.434 137.712 352.872 139.655C353.609 142.925 354.217 146.223 354.951 149.494C355.276 150.943 355.694 156.213 357.636 156.739C361.662 157.828 360.778 146.516 360.842 144.794C360.969 141.318 361.056 137.837 360.974 134.358C360.915 131.847 360.429 129.122 360.718 126.609C361.426 120.44 364.895 126.94 365.87 129.236C368.334 135.033 369.449 141.238 371.659 147.128C372.026 148.108 372.89 151.406 374.258 151.467C375.781 151.535 375.769 148.129 375.856 147.133C376.361 141.365 378.067 135.637 377.552 129.808C377.032 123.923 374.969 117.873 372.05 112.754C365.878 101.931 354.732 95.7172 344.056 90.0567C331.839 83.5797 318.94 78.4625 305.766 74.2938C289.922 69.2802 273.653 65.2236 257.286 62.3367C248.96 60.8682 240.505 59.8179 232.093 58.9759C229.136 58.68 226.179 58.5071 223.261 57.9444C222.159 57.7316 218.185 56.7206 218.488 58.9765ZM209.977 40.4997C214.151 40.5327 218.416 38.5089 222.482 37.6726C227.324 36.6758 232.053 35.2335 236.886 34.1928C246.351 32.1554 255.82 30.1686 265.276 28.0863C269.381 27.1822 273.506 26.3953 277.595 25.4243C281.97 24.3854 286.696 23.227 291.174 24.3461C297.961 26.0428 300.828 33.468 303.32 39.2628C305.08 43.3558 306.459 47.9183 309.205 51.4799C310.182 52.7498 311.571 54.2644 313.344 53.853C316.636 53.0895 316.113 48.7324 315.694 46.3241C315.086 42.829 314.226 39.3749 313.537 35.8957C313.259 34.4915 311.107 25.3014 314.949 26.7242C317.799 27.7796 319.306 34.7311 320.385 37.214C321.187 39.0591 322.036 40.8923 322.936 42.6919C324.136 45.0923 327.561 53.1128 331.353 52.0785C336.78 50.598 331.575 36.3315 330.65 33.3246C330.143 31.6741 324.627 19.1567 329.282 20.1797C331.265 20.6161 333.197 24.2989 334.208 25.8254C336.001 28.5329 337.788 31.2599 339.475 34.0341C341.211 36.8874 342.097 40.135 343.819 42.9468C344.725 44.4266 346.573 46.3986 348.378 45.0286C351.192 42.8944 349.524 35.4707 349.031 32.6635C348.115 27.4445 345.838 22.0942 342.714 17.8276C338.019 11.4167 329.161 9.34511 321.712 8.09968C312.098 6.49181 302.349 6.93162 292.694 7.88291C281.836 8.95311 271.143 10.099 260.44 12.2872C249.653 14.4924 238.86 16.6801 228.24 19.5965C223.236 20.9705 218.161 22.1887 213.229 23.8017C207.986 25.5159 202.868 27.6493 197.479 28.8845C199.374 33.6154 201.271 38.3462 203.166 43.0776C204.981 41.2826 207.458 40.4792 209.977 40.4997ZM117.054 53.5361C115.391 52.6269 113.555 52.1979 112.948 50.1884C112.412 48.4127 113.328 46.4009 113.766 44.6963C114.992 39.9239 115.314 34.9803 114.23 30.1516C113.193 31.7338 109.313 37.8199 106.953 34.1354C105.53 31.913 109.344 28.7161 110.457 27.1538C108.014 25.6462 104.525 21.5998 101.71 24.04C99.8901 25.6178 99.1197 27.1367 96.6681 27.9036C93.6919 28.835 90.8898 28.6217 87.8505 28.3645C85.7226 28.1847 85.2099 27.9008 84.3787 29.5394C83.7261 30.8275 83.3893 32.4217 83.0075 33.8048C82.2565 36.5318 80.5178 41.905 82.5774 44.4596C84.381 46.6973 91.3825 44.7788 92.3549 47.6674C92.8851 49.2428 90.3544 49.2991 89.3872 50.0786C88.1895 51.0435 87.199 52.5791 86.5481 53.9509C86.0662 54.9653 85.3334 56.6415 86.1538 57.6787C87.2872 59.1136 89.3883 58.0252 90.3015 56.9823C91.5145 55.5969 91.9082 53.7028 92.9204 52.194C94.778 49.4254 94.889 51.6278 95.3948 53.6158C95.9199 55.6811 97.1625 55.5388 99.0656 55.804C102.405 56.2699 105.779 56.9271 109.03 57.822C110.696 58.2806 112.31 58.8649 113.897 59.5477C114.92 59.9869 116.692 61.3177 117.801 61.3302C119.857 61.3535 121.282 57.9154 122.343 56.481C120.582 55.4973 118.824 54.5045 117.054 53.5361ZM6.66025 264.062C11.7945 257.899 16.2408 251.204 21.3068 244.987C26.3028 238.855 32.0828 233.494 37.6892 227.94C40.3354 225.319 42.8707 222.444 45.7917 220.121C47.9708 218.388 49.6475 218.361 52.2687 219.129C59.7169 221.31 67.2999 223.936 74.3481 227.191C80.9109 230.222 86.8889 234.115 94.0065 235.805C101.271 237.531 108.826 238.085 116.271 237.657C123.909 237.218 131.113 235.629 138.376 233.294C145.254 231.081 152.427 229.15 158.31 224.765C164.477 220.169 169.242 213.559 173.657 207.341C175.893 204.194 178.111 200.888 179.618 197.321C180.924 194.225 181.778 190.571 184.124 188.048C184.699 188.863 185.415 189.563 185.707 190.52C185.84 190.955 185.056 190.942 185.136 191.288C185.288 191.939 186.155 192.604 186.659 192.958C188.47 194.233 188.481 193.218 188.006 195.601C187.73 196.991 188.253 200.125 190.519 199.101C189.685 200.1 191.01 201.36 191.443 202.183C191.74 201.841 192.111 201.722 192.553 201.825C191.725 203.475 192.214 203.518 193.017 204.829C193.164 205.068 193.683 206.322 193.609 206.216C194.429 207.385 195.377 207.679 195.855 209.134C196.249 210.329 196.148 211.644 196.586 212.837C197.116 212.105 197.645 211.373 198.175 210.641C198.067 211.217 197.851 212.069 197.599 212.592C197.441 212.918 196.763 213.681 196.772 213.859C196.809 214.524 197.64 214.364 197.876 214.938C198.321 216.016 197.678 216.174 197.921 217.225C198.198 218.431 198.944 217.949 199.298 218.977C199.365 219.172 198.842 219.94 198.925 220.361C199.042 220.956 199.581 221.289 199.772 221.818C200.256 223.164 200.08 224.15 200.753 225.441C201.014 225.941 201.393 226.275 201.577 226.844C201.738 227.345 201.391 228.41 201.702 228.859C203.203 231.02 202.992 227.297 202.878 226.373C201.923 218.62 198.858 210.618 196.053 203.372C194.659 199.771 193.303 196.058 191.555 192.61C190.851 191.221 190.04 189.788 188.877 188.726C187.407 187.382 185.321 186.844 183.99 185.343C184.2 185.58 182.546 184.015 182.811 184.53C182.574 184.07 182.987 183.448 182.841 183.003C182.658 182.45 182.313 182.334 181.928 181.85C181.237 180.982 180.416 180.55 181.501 179.444C179.89 179.088 179.12 178.565 178.798 176.839C178.563 175.577 179.037 175.659 178.209 174.818C177.378 173.972 176.956 174.632 176.432 173.168C175.806 171.416 175.39 169.034 175.015 167.201C174.687 165.601 175.482 163.247 174.133 162.117C172.425 160.686 170.896 161.292 171.202 158.414C171.501 155.609 170.629 153.909 169.753 151.254C168.005 145.955 167.329 140.359 165.796 134.996C162.524 123.551 156.744 113.232 150.529 103.157C144.786 93.8482 136.757 85.917 129.003 78.2788C126.881 76.1867 124.781 74.0645 122.875 71.7711C121.233 69.7962 120.483 67.1074 118.905 65.2327C117.946 64.0942 116.162 63.6072 114.823 63.0035C112.59 61.9965 109.93 60.6827 107.41 60.8864C108.411 64.262 108.738 68.2066 105.783 70.7379C102.198 73.8085 98.9485 70.6184 95.6622 68.8677C89.6722 65.6764 81.1055 68.606 75.8825 63.8228C74.6382 62.6838 74.2911 60.8637 72.9985 59.7997C72.0495 59.0197 70.6993 58.8217 69.6309 58.2402C66.385 56.4736 64.8095 53.2397 66.0732 49.6672C67.2287 46.4014 69.0232 45.2687 65.028 43.6136C61.785 42.2708 60.5521 40.2476 62.02 36.6456C63.4196 33.2114 65.9839 32.816 68.4099 30.5686C70.7596 28.3918 68.06 25.8584 66.2997 24.2244C64.0301 22.1164 63.596 20.2167 66.2274 18.0245C68.9834 15.7293 72.9183 15.8096 76.1306 16.9446C79.7639 18.2276 82.1575 20.3606 83.6948 23.817C85.2606 27.3358 89.1414 26.3538 92.2843 25.3731C95.2901 24.4355 96.0724 22.4123 98.0461 20.2337C100.241 17.8106 104.715 19.8827 107.304 20.9899C113.68 23.7152 120.017 28.0163 120.271 35.6351C120.421 40.1782 118.5 44.0397 117.501 48.304C116.587 52.2036 122.852 51.8964 123.937 55.6686C135.51 49.5421 148.398 47.6674 161.335 47.2503C175.085 46.8065 189.033 46.4509 202.666 48.6198C199.501 43.1066 197.83 37.0609 195.077 31.397C194.285 29.7664 193.943 29.9058 192.194 30.3985C188.835 31.3447 185.5 32.4035 182.147 33.3781C169.899 36.9386 157.891 41.2285 146.048 45.9269C144.897 46.3838 142.327 47.652 141.318 46.2729C140.154 44.6826 142.847 42.722 143.937 41.9221C148.706 38.4236 154.615 36.3002 159.956 33.8458C171.633 28.4811 184.563 25.9347 196.746 21.9503C223.049 13.3471 250.259 6.81327 277.593 2.49776C284.263 1.44463 291.005 1.29044 297.704 0.5087C303.639 -0.183716 309.584 -0.167785 315.517 0.54739C326.476 1.86907 339.182 4.72066 345.371 14.7524C350.959 23.8102 354.689 33.9937 353.263 44.7378C352.835 47.9649 351.468 51.7866 347.486 50.9548C344.724 50.3779 343.257 48.0309 341.975 45.7403C340.037 42.2799 338.123 38.8196 336.023 35.4519C335.244 40.5014 338.074 45.4667 337.629 50.6106C337.327 54.1011 335.398 59.616 330.866 58.6277C324.655 57.2736 322.099 47.5701 319.112 42.9149C318.961 46.5004 320.218 50.0342 319.833 53.6277C319.454 57.1774 316.68 60.5286 312.784 60.0421C309.11 59.5835 306.722 55.6469 305.162 52.6833C302.99 48.5589 301.43 44.137 299.309 39.9854C297.321 36.0937 294.966 31.4607 290.22 30.7296C285.984 30.0765 281.13 31.5882 276.946 32.2117C265.339 33.9414 253.967 36.8863 242.488 39.2656C230.18 41.8162 217.581 43.3655 205.652 47.4813C209.847 53.1902 220.823 51.9567 227.071 52.5695C236.513 53.4957 246.077 54.1927 255.466 55.5593C264.739 56.9089 273.817 59.3047 283.018 61.044C292.17 62.7742 301.306 64.5072 310.162 67.4578C326.604 72.9363 343.321 79.8696 357.807 89.4285C364.548 93.8766 370.535 98.9602 374.699 105.981C378.889 113.046 380.903 121.034 381.671 129.161C382.149 134.221 381.337 138.6 380.357 143.525C379.647 147.091 379.417 153.061 376.558 155.672C371.101 160.655 366.57 140.441 365.563 138C364.837 142.001 366.024 164.541 357.268 162.707C353.36 161.89 352.474 156.526 351.826 153.296C350.644 147.407 349.585 141.399 347.563 135.727C346.265 143.369 345.724 151.331 342.928 158.63C341.071 163.478 335.772 172.079 332.078 163.781C329.307 157.557 330.258 150.414 329.926 143.806C329.558 136.483 327.455 129.42 326.711 122.17C326.423 119.361 326.684 116.195 323.861 114.662C321.438 113.347 317.895 112.918 315.249 112.184C307.413 110.008 299.526 108.008 291.726 105.7C283.924 103.39 276.229 100.692 268.531 98.0579C261.168 95.5391 253.65 94.107 246.198 91.9501C241.961 90.7235 237.775 89.4405 233.479 88.4164C231.48 87.9402 229.456 87.5692 227.461 87.0759C225.983 86.7107 224.035 85.3321 222.514 85.3565C220.95 85.3821 220.362 86.7067 218.567 86.8108C216.636 86.9223 214.672 86.4962 212.751 86.3488C208.071 85.9898 203.097 85.4095 198.428 86.0581C201.234 89.3864 205.024 91.6873 208.346 94.4444C212.176 97.6243 215.884 101.058 219.156 104.813C225.74 112.369 231.962 120.355 237.743 128.541C243.446 136.616 248.038 145.452 252.029 154.48C254.018 158.979 255.949 163.576 257.323 168.305C257.888 170.247 258.349 172.197 259.368 173.964C260.302 175.584 261.62 176.981 260.515 178.937C259.754 178.461 259.071 177.869 258.383 177.298C259.178 182.897 260.893 188.313 261.775 193.895C262.644 199.395 262.609 205.051 262.553 210.605C262.434 222.236 261.57 233.605 259.21 245.014C256.824 256.551 253.758 268 249.893 279.129C246.172 289.845 242.438 301.082 237.244 311.182C231.697 321.969 225.097 333.31 217.068 342.442C222.313 344.59 228.988 344.188 234.542 345.054C240.348 345.958 245.37 347.666 250.317 350.878C255.323 354.129 258.04 358.314 258.732 364.242C259.224 368.46 260.684 374.301 255.149 375.41C251.168 376.207 246.718 374.897 242.729 374.574C235.752 374.008 228.764 373.655 221.771 373.35C214.796 373.046 207.819 372.778 200.842 372.561C197.561 372.46 194.277 372.408 190.997 372.291C189.526 372.238 188.635 372.215 187.317 372.64C186.274 372.977 186.351 373.675 185.19 372.812C183.318 371.419 183.703 367.03 183.756 365.1C183.835 362.122 184.117 359.109 184.698 356.187C185.043 354.45 189.228 343.257 185.974 342.786C189.755 338.632 191.265 332.699 192.963 327.492C195.091 320.969 196.959 314.463 198.425 307.754C201.557 293.421 202.941 278.932 202.941 264.267C188.423 273.216 173.061 278.064 155.961 278.604C138.96 279.142 120.281 277.746 104.137 272.09C96.6613 269.47 89.9647 266.031 83.5549 261.396C81.2574 259.736 78.7961 255.974 75.7807 256.038C72.182 256.115 68.1521 257.477 64.5786 258.06C57.7443 259.174 48.8242 259.803 43.038 264.03C39.8951 266.326 37.6426 269.54 34.8376 272.186C32.7041 274.199 29.8826 275.292 27.765 277.305C25.4801 279.477 26.3875 282.314 22.5989 282.49C19.3604 282.639 15.8096 281.337 13.0166 279.807C7.44427 276.756 1.51007 270.243 6.66025 264.062Z" fill="#FEEDE1" fill-opacity="0.8"/>
<path fill-rule="evenodd" clip-rule="evenodd" d="M60.2198 118.929C52.0649 124.721 42.7114 128.678 34.1896 133.895C32.0566 135.201 25.4112 137.912 25.4755 140.334C25.5131 141.75 27.5101 143.526 28.3846 144.507C29.8826 146.188 31.2919 147.887 32.6744 149.666C39.0023 157.81 44.9616 166.032 51.8197 173.767C52.8524 174.931 55.9629 180.487 56.9671 177.727C57.4222 176.476 57.0473 175.07 58.2336 173.904C58.844 173.303 61.2035 172.972 60.5162 171.683C60.0582 171.889 59.5996 172.096 59.141 172.301C59.4972 171.271 59.471 170.143 60.0047 169.17C60.3364 168.565 60.9844 168.279 61.2092 167.598C61.5198 166.657 60.993 165.563 61.0812 164.593C61.1682 163.626 61.6695 162.711 61.9687 161.799C63.7433 156.389 64.38 150.936 65.2886 145.354C66.1875 139.832 67.5877 134.482 68.1373 128.897C68.7182 122.999 69.43 117.113 70.3796 111.262C68.6847 111.499 67.3818 113.341 66.183 114.382C64.2986 116.019 62.2526 117.485 60.2198 118.929ZM66.6125 176.033C67.0017 175.727 67.3061 175.352 67.5257 174.907C63.5288 172.927 65.9406 176.305 66.6125 176.033ZM69.0431 171.81C70.7853 172.29 72.0369 172.388 73.3802 171.671C73.5077 171.603 73.3609 171.079 73.5907 170.971C73.7916 170.878 74.0982 170.994 74.2701 170.906C74.8549 170.608 75.8791 171.261 75.9787 170.121C73.7552 169.441 71.5687 168.185 69.2212 167.974C65.9588 167.68 66.1096 171.001 69.0431 171.81ZM76.6762 165.244C79.0533 165.8 81.0116 167.099 83.5372 166.76C85.908 166.442 87.9682 165.213 89.8384 163.796C85.1599 162.471 80.2538 162.232 75.5792 160.951C74.0573 160.534 72.0574 159.434 70.4171 159.877C68.5948 160.37 68.4798 162.077 67.9337 163.63C70.8501 164.155 73.7887 164.57 76.6762 165.244ZM91.5435 158.654C93.8273 159.199 96.1617 160.392 98.0711 158.333C98.3795 158.001 98.6492 158.333 98.6128 157.309C98.5746 156.23 97.5949 155.535 96.7523 155.155C94.7712 154.261 91.9941 154.839 89.8901 154.707C86.5339 154.499 83.1179 153.801 79.798 153.264C77.4994 152.892 75.1252 152.067 72.776 152.23C70.9622 152.356 68.774 153.902 71.4173 155.029C73.8246 156.057 77.434 155.899 80.0421 156.344C83.8973 157.002 87.7389 157.744 91.5435 158.654ZM93.7744 147.91C93.6264 148.06 93.4785 148.211 93.3306 148.362C93.3551 148.356 92.455 147.627 92.2166 147.606C91.0588 147.506 89.8941 147.585 88.7346 147.52C86.0628 147.369 83.3699 146.904 80.7459 146.391C78.6083 145.973 76.431 145.254 74.2308 145.434C72.326 145.59 72.1257 145.98 72.0011 147.819C76.8634 147.819 81.8719 147.716 86.6505 148.745C89.7615 149.415 93.1901 151.41 94.7484 147.814C94.4236 147.846 94.0992 147.878 93.7744 147.91ZM90.7345 140.127C89.5289 141.045 86.242 139.518 84.7968 139.366C83.2277 139.199 81.7512 139.027 80.2304 138.636C78.882 138.289 74.4208 136.556 73.3865 138.213C71.8008 140.753 78.2214 141.219 79.2393 141.344C83.5082 141.872 87.9375 142.339 92.0914 143.459C91.6391 142.349 91.1868 141.238 90.7345 140.127ZM84.8788 131.502C84.567 132.676 74.913 128.351 74.7372 131.494C74.6018 133.906 84.2888 135.108 86.0304 134.896C85.6224 133.785 84.5374 132.791 84.8788 131.502ZM81.6375 124.124C81.4321 121.757 81.1146 121.771 79.216 121.548C77.768 121.378 75.7778 120.529 76.1544 123.109C76.477 125.319 81.844 126.513 81.6375 124.124ZM78.1868 115.979C77.7299 114.708 76.7018 116.419 76.6802 117.065C76.6227 118.785 77.9267 118.413 79.1818 118.413C78.8325 117.609 78.5002 116.797 78.1868 115.979ZM62.2976 106.438C62.5536 106.13 63.9908 106.012 64.3999 105.862C65.4058 105.493 65.263 104.708 66.55 105.483C66.6142 105.418 66.4919 104.835 66.5619 104.808C66.5972 104.795 67.499 104.455 67.792 104.267C68.4992 103.814 69.1364 103.371 69.7862 102.802C70.4769 102.199 71.1687 101.322 71.9579 100.842C72.2907 100.639 72.5627 100.352 72.9638 100.29C74.0044 100.129 73.7062 100.854 74.616 100.998C75.1764 101.087 75.5844 100.433 76.3172 100.715C76.9504 100.958 77.318 101.846 77.6002 102.375C78.626 104.299 79.4174 106.369 80.4216 108.313C85.557 118.255 91.3939 127.819 96.3682 137.853C98.7641 142.687 101.264 147.554 102.95 152.691C104.166 156.396 106.912 161.808 104.55 165.511C102.832 168.202 99.3928 169.365 96.6487 170.665C92.5198 172.623 88.7135 175.181 84.5391 177.078C79.5613 179.341 74.7275 181.708 69.8755 184.234C67.8062 185.312 65.9389 186.864 63.8764 187.885C62.6151 188.509 60.667 187.444 60.2562 188.875C58.6751 186.96 56.1159 188.236 54.2867 186.888C53.2108 186.095 52.4246 184.532 51.5273 183.556C50.1812 182.091 48.7201 180.732 47.3466 179.294C41.8955 173.578 36.862 167.626 31.9024 161.488C27.1653 155.626 21.6311 150.087 17.6296 143.671C16.0405 141.124 15.7526 138.452 16.8012 135.638C17.567 133.586 19.4116 130.486 22.0464 131.845C21.0473 130.186 24.9014 128.414 26.0706 128.09C26.0882 128.085 26.3187 129.36 26.6447 129.328C26.5286 129.339 27.6244 126.504 28.1058 126.141C29.535 125.059 31.2737 123.797 32.8332 122.907C34.2636 122.09 35.773 121.686 37.1584 120.772C38.8379 119.665 40.3798 118.352 42.0656 117.252C43.6934 116.19 45.5078 114.935 47.3068 114.205C48.8669 113.572 50.2676 113.448 51.6713 112.41C53.4077 111.126 54.9223 110.255 56.925 109.37C58.6574 108.605 61.0584 107.937 62.2976 106.438Z" fill="#FEEDE1" fill-opacity="0.8"/>
<path fill-rule="evenodd" clip-rule="evenodd" d="M298.787 260.194C298.468 259.445 298.151 258.697 297.832 257.95C297.438 259.254 297.328 259.902 298.787 260.194ZM298.363 263.649C299.053 263.773 298.781 261.608 298.781 261.231C297.589 261.906 298.576 262.715 298.363 263.649ZM299.439 257.404C298.851 257.056 298.262 256.709 297.674 256.362C298.493 257.88 298.172 256.931 297.834 257.945C298.452 258.123 299.053 257.915 299.439 257.404ZM302.925 269.268C305.131 277.269 312.135 283.579 319.533 286.848C323.784 288.725 327.964 289.195 332.555 288.986C334.325 288.905 336.409 288.33 338.113 288.437C339.425 288.519 339.366 288.576 340.452 289.687C340.933 288.802 340.585 288.18 341.549 287.665C342.753 287.022 343.252 287.771 343.849 288.661C344.63 287.852 344.95 287.429 345.962 286.948C345.93 286.963 346.931 286.925 346.89 286.938C347.071 286.882 348.16 286.182 348.5 286.055C349.899 285.53 351.516 285.315 352.806 284.562C353.935 283.905 354.865 282.06 356.156 283.477C356.157 281.108 359.349 280.126 360.844 278.885C363.182 276.946 365.04 274.075 366.205 271.298C367.448 268.336 367.862 265.497 368.444 262.446C368.85 260.313 371.511 257.23 369.913 255.079C369.532 255.981 369.711 256.905 369.079 257.723C368.51 256.627 368.197 255.4 367.94 254.2C367.813 253.613 367.082 251.887 367.165 251.375C367.334 250.327 368.631 250.27 367.912 248.986C366.42 250.609 365.216 247.759 366.343 246.622C366.9 247.25 367.104 247.963 367.361 248.74C368.827 245.779 364.768 246.733 365.656 244.06C364.174 243.775 363.323 243.401 362.759 241.938C362.133 240.309 362.594 239.954 361.171 238.877C360.682 238.507 359.298 237.975 359.045 237.367C358.555 236.191 359.802 235.842 358.71 234.74C358.342 235.387 356.904 236.667 356.117 235.449C355.96 235.206 356.622 235.033 356.14 234.473C355.427 233.645 354.63 232.833 353.424 233.007C354.379 230.62 348.278 230.431 346.716 229.868C345.15 229.304 343.822 228.934 342.162 228.803C340.503 228.672 340.421 228.186 339.016 227.187C338.898 228.616 338.554 228.302 337.538 228.554C337.294 228.135 337.044 228.088 336.788 228.413C336.533 228.655 336.221 228.769 335.854 228.755C335.296 228.785 334.663 228.712 334.079 228.724C332.707 228.75 331.292 228.636 329.947 228.665C329.6 228.607 329.275 228.486 328.972 228.303C328.845 228.542 328.717 228.781 328.591 229.021C327.878 229.11 327.823 230.003 326.946 229.026C326.687 230.268 325.941 229.622 325.154 229.959C324.436 230.267 324.322 230.758 323.659 231.101C323.223 231.455 322.756 231.501 322.256 231.242C321.781 231.595 321.299 231.937 320.809 232.268C319.908 232.777 318.845 233.089 317.895 233.491C317.263 233.752 316.634 234.023 316.011 234.304C315.993 235.057 315.655 235.322 315 235.101C314.408 235.597 314.241 235.577 313.666 236.421C312.364 238.333 311.209 239.819 309.565 241.528C302.419 248.958 300.223 259.464 302.925 269.268ZM300.732 237.672C303.959 233.351 308.526 228.403 312.63 225.675C314.71 224.291 317.629 221.807 320.173 221.076C320.776 220.902 321.401 220.891 321.993 220.709C322.451 220.568 322.701 220.098 323.223 220.014C323.588 219.954 323.629 220.772 324.017 220.697C324.828 220.539 325.342 219.734 325.915 219.23C327.146 221.351 327.814 217.784 329.621 220.182C331.771 216.81 336.824 217.547 340.258 217.717C341.276 217.767 341.755 218.13 342.658 218.398C343.498 218.648 343.581 218.584 344.499 218.577C346.784 218.559 348.813 218.847 350.926 219.85C354.475 221.536 357.733 224.163 361.104 226.195C364.871 228.465 368.267 231.356 371.15 234.677C381.57 246.685 384.356 264.213 376.047 278.134C362.85 300.244 328.809 302.607 309.52 287.605C294.618 276.013 288.946 253.451 300.732 237.672Z" fill="#FEEDE1" fill-opacity="0.8"/>
<path fill-rule="evenodd" clip-rule="evenodd" d="M137.392 175.453C137.762 176.336 141.221 176.039 141.297 174.997C141.409 173.44 136.748 173.917 137.392 175.453ZM133.718 174.875C131.758 175.034 128.538 176.365 126.649 175.561C123.766 174.333 126.793 172.449 128.34 171.885C129.914 171.312 132.258 171.617 133.067 169.971C133.675 168.734 132.171 165.279 134.037 165.834C135.996 166.417 135.426 171.366 138.499 169.698C139.965 168.902 139.367 164.053 141.822 166.53C142.494 167.208 142.552 168.452 143.442 168.957C144.35 169.473 145.489 168.936 146.448 168.981C148.986 169.1 149.795 171.474 147.223 172.416C146.271 172.764 142.683 173.19 144.857 174.745C146.226 175.725 149.268 173.669 150.444 175.375C152.061 177.718 147.731 177.771 146.568 178.471C144.597 179.658 146.225 182.431 146.068 184.405C145.827 187.422 144.075 186.791 143.438 184.238C142.898 182.072 143.567 178.955 140.302 179.815C134.985 181.217 143.259 187.968 139.364 189.695C136.88 190.797 136.529 184.843 136.336 183.817C135.622 180.033 133.496 180.916 130.276 181.032C126.514 181.168 125.606 178.385 129.59 177.588C130.861 177.334 132.609 177.655 133.713 176.845C134.366 176.367 135.264 174.749 133.718 174.875Z" fill="#FEEDE1" fill-opacity="0.8"/>
<path fill-rule="evenodd" clip-rule="evenodd" d="M272.614 298.505C275.659 297.415 280.752 297.65 281.506 301.582C281.821 303.228 281.207 304.969 280.07 306.165C278.752 307.552 276.652 307.68 276.764 305.266C276.842 303.594 278.433 302.143 275.637 301.806C273.897 301.597 271.324 302.898 271.237 304.82C271.041 309.152 278.54 309.492 281.304 308.742C286.788 307.256 285.298 301.512 281.532 298.89C280.559 298.212 277.767 297.169 277.639 295.762C277.47 293.896 279.778 294.277 280.909 294.523C289.223 296.332 291.035 310.26 282.348 312.886C278.402 314.078 272.847 312.847 270.469 309.274C268.24 305.924 268.21 300.082 272.614 298.505Z" fill="#FEEDE1" fill-opacity="0.8"/>
<path fill-rule="evenodd" clip-rule="evenodd" d="M382.851 199.907C385.45 201.158 388.049 202.41 390.647 203.661C391.506 201.822 392.958 196.8 395.137 196.159C398.664 195.121 396.418 200.595 395.809 201.847C395.309 202.875 394.149 204.468 394.431 205.694C394.808 207.345 397.138 207.93 398.357 208.781C401.374 210.89 401.35 215.318 396.981 213.442C394.508 212.379 391.446 209.434 389.551 212.778C388.676 214.321 386.603 222.942 384.438 217.304C383.098 213.814 389.547 210.187 386.367 207.234C385.344 206.284 384.146 206.204 383.123 205.658C380.654 204.338 382.046 201.9 382.851 199.907Z" fill="#FEEDE1" fill-opacity="0.8"/>
<path fill-rule="evenodd" clip-rule="evenodd" d="M1.83092 74.9992C3.38018 74.4326 5.297 73.326 7.01922 73.7032C8.84954 74.1037 9.58634 75.9369 10.9171 77.0389C14.5351 80.0356 16.6425 75.5693 18.6304 73.1217C20.5079 70.8106 22.7986 70.2496 25.4476 71.6697C26.503 72.2358 30.9494 74.8297 30.1739 76.4916C29.6163 77.6875 27.4196 76.6139 26.6703 76.3528C25.0437 75.7867 23.5331 75.2911 21.8695 76.1167C18.7488 77.6642 17.9391 81.908 14.1636 82.5697C10.2594 83.2542 10.1314 79.5389 7.34523 78.1404C5.47735 77.2034 4.17616 78.8624 2.37428 78.5319C0.657181 78.2172 -0.137087 75.7184 1.83092 74.9992Z" fill="#FEEDE1" fill-opacity="0.8"/>
<path fill-rule="evenodd" clip-rule="evenodd" d="M33.3506 89.9724C31.9698 90.2723 31.0685 87.5942 30.2043 86.9149C28.7705 85.7889 26.2848 85.5619 24.8248 86.6953C21.9738 88.9074 22.9564 93.6832 18.8969 94.928C15.2687 96.0409 13.5596 91.2623 10.5054 90.0726C8.72972 89.3807 6.7805 88.9279 7.47349 86.4455C7.95198 84.729 9.36185 84.288 10.8946 84.9475C13.5289 86.0797 14.4232 90.6922 17.5462 90.7747C20.7773 90.86 21.1278 86.202 22.5149 84.1731C24.6297 81.0809 28.9771 80.3338 31.4475 83.2907C32.1934 84.1828 35.9803 89.4029 33.3506 89.9724Z" fill="#FEEDE1" fill-opacity="0.8"/>
<path fill-rule="evenodd" clip-rule="evenodd" d="M97.2192 37.1679C95.2984 38.4822 91.4705 38.4367 89.7011 36.8066C87.9004 35.1481 90.3042 34.8932 91.7709 34.9438C92.8992 34.9831 95.0111 35.5424 94.3682 33.5937C93.7976 31.8647 90.6609 32.7448 90.3992 30.8468C92.7598 30.4235 95.3599 30.576 97.106 32.4313C98.3685 33.7724 99.0171 35.9372 97.2192 37.1679Z" fill="#FEEDE1" fill-opacity="0.8"/>
</svg>
